<svg width="69" height="69" viewBox="0 0 69 69" fill="none" xmlns="http://www.w3.org/2000/svg">
<circle cx="34.5" cy="34.5" r="34.5" fill="#00A0AA"/>
<g clip-path="url(#clip0_7344_185)">
<path d="M28 21.5V24.5H25V30.5C25 33.815 27.685 36.5 31 36.5C34.315 36.5 37 33.815 37 30.5V24.5H34V21.5H38.5C39.328 21.5 40 22.172 40 23V30.5C40 34.9595 36.757 38.66 32.5 39.3755V41.75C32.5 44.6495 34.8505 47 37.75 47C39.9955 47 41.9125 45.59 42.6625 43.6055C41.092 42.905 40 41.33 40 39.5C40 37.0145 42.0145 35 44.5 35C46.9855 35 49 37.0145 49 39.5C49 41.5565 47.62 43.2905 45.736 43.8275C44.815 47.378 41.5885 50 37.75 50C33.193 50 29.5 46.307 29.5 41.75V39.3755C25.243 38.6615 22 34.9595 22 30.5V23C22 22.172 22.672 21.5 23.5 21.5H28ZM44.5 38C43.672 38 43 38.672 43 39.5C43 40.328 43.672 41 44.5 41C45.328 41 46 40.328 46 39.5C46 38.672 45.328 38 44.5 38Z" fill="white"/>
</g>
<defs>
<clipPath id="clip0_7344_185">
<rect width="36" height="36" fill="white" transform="translate(16 17)"/>
</clipPath>
</defs>
</svg>
