<svg width="69" height="69" viewBox="0 0 69 69" fill="none" xmlns="http://www.w3.org/2000/svg">
<circle cx="34.5" cy="34.5" r="34.5" fill="#00A0AA"/>
<g clip-path="url(#clip0_7344_186)">
<path d="M49.5169 26.9694L47.3944 29.0889L44.2144 25.9089L41.0314 29.0889L46.3339 34.3929L44.2129 36.5139L43.1524 35.4534L33.6064 44.9994H25.1209L21.9394 48.1809L19.8184 46.0599L22.9999 42.8784V34.3929L32.5459 24.8469L31.4854 23.7864L33.6064 21.6654L38.9104 26.9679L42.0904 23.7864L38.9104 20.6049L41.0314 18.4824L49.5169 26.9694ZM41.0314 33.3324L34.6669 26.9679L32.5459 29.0889L35.7274 32.2719L33.6064 34.3929L30.4249 31.2114L28.3039 33.3324L31.4839 36.5139L29.3644 38.6349L26.1814 35.4534L25.9999 35.6349V41.9994H32.3644L41.0314 33.3324Z" fill="white"/>
</g>
<defs>
<clipPath id="clip0_7344_186">
<rect width="36" height="36" fill="white" transform="translate(17 15)"/>
</clipPath>
</defs>
</svg>
